<?xml version="1.0" encoding="utf-8"?>
<!-- Generator: Adobe Illustrator 26.0.1, SVG Export Plug-In . SVG Version: 6.00 Build 0)  -->
<svg version="1.1" id="Layer_1" xmlns="http://www.w3.org/2000/svg" xmlns:xlink="http://www.w3.org/1999/xlink" x="0px" y="0px"
	 viewBox="0 0 64 64" style="enable-background:new 0 0 64 64;" xml:space="preserve">
<style type="text/css">
	.st0{fill:#264796;}
</style>
<g>
	<path class="st0" d="M32,0C14.3,0,0,14.3,0,32c0,2.9,0.4,5.9,1.2,8.7c0.1,0.6,0.7,0.9,1.3,0.8s0.9-0.7,0.8-1.3c0,0,0,0,0,0
		c-0.8-2.6-1.1-5.4-1.1-8.1C2.1,15.5,15.5,2.1,32,2.1S61.9,15.5,61.9,32c0,2.8-0.4,5.5-1.1,8.1c-0.2,0.6,0.1,1.2,0.7,1.3
		c0.6,0.2,1.2-0.1,1.3-0.7c0,0,0,0,0,0c0.8-2.8,1.2-5.8,1.2-8.7C64,14.3,49.7,0,32,0z"/>
	<path class="st0" d="M38.2,35.8c6.8-3.4,9.6-11.8,6.2-18.6s-11.8-9.6-18.6-6.2s-9.6,11.8-6.2,18.6c1.3,2.7,3.5,4.8,6.2,6.2
		C18.8,37.3,12.6,41,8.1,46.5c-1.7,2.1-1.6,5,0.2,7c11.9,13.1,32.1,14.1,45.2,2.3c0.8-0.7,1.5-1.5,2.3-2.3c1.8-2,1.8-4.9,0.2-7
		C51.4,41,45.2,37.3,38.2,35.8z"/>
</g>
</svg>
