<?xml version="1.0" encoding="utf-8"?>
<!-- Generator: Adobe Illustrator 26.0.1, SVG Export Plug-In . SVG Version: 6.00 Build 0)  -->
<svg version="1.1"
	 id="Layer_1" image-rendering="optimizeQuality" text-rendering="geometricPrecision" shape-rendering="geometricPrecision"
	 xmlns="http://www.w3.org/2000/svg" xmlns:xlink="http://www.w3.org/1999/xlink" x="0px" y="0px" viewBox="0 0 64 64"
	 style="enable-background:new 0 0 64 64;" xml:space="preserve">
<style type="text/css">
	.st0{fill-rule:evenodd;clip-rule:evenodd;fill:#264796;}
	.st1{fill:#264796;}
	.st2{fill:none;}
</style>
<path class="st0" d="M7,61.4c1.1-8.5,4.4-35.9,2.8-51.9C9.6,8.1,10.7,7,12,7h39.9c1.4,0,2.4,1.2,2.3,2.5c-1.6,16,1.7,43.4,2.8,51.9
	c0.2,1.4-0.9,2.6-2.3,2.6H9.2C7.8,64,6.8,62.8,7,61.4z M44.1,20.5v7.2c0,3.3-1.4,6.4-3.6,8.6c-2.2,2.2-5.2,3.6-8.6,3.6
	s-6.4-1.4-8.6-3.6c-2.2-2.2-3.6-5.2-3.6-8.6v-7.2c0.6-0.4,1-1,0.9-1.8c-0.1-1-0.9-1.8-1.9-1.8c-1.1-0.1-2,0.8-2,2
	c0,0.7,0.4,1.3,0.9,1.7v7.2c0,3.9,1.6,7.4,4.2,10c2.6,2.6,6.1,4.2,10,4.2c3.9,0,7.4-1.6,10-4.2c2.6-2.6,4.2-6.1,4.2-10v-7.2
	c0.6-0.4,1-1,0.9-1.8c-0.1-1-0.9-1.8-1.9-1.8c-1.1-0.1-2,0.8-2,2C43.2,19.6,43.5,20.2,44.1,20.5L44.1,20.5z"/>
<path class="st1" d="M11.3,6c0-0.5-0.1-0.9-0.1-1.4c-0.1-1.2-0.3-2.4-0.5-3.4l0,0C10.7,0.7,11,0.1,11.6,0c0.1,0,0.1,0,0.2,0h40.4
	c0.6,0,1,0.5,1,1c0,0.1,0,0.2,0,0.3c-0.2,1-0.3,2.1-0.4,3.3c0,0.5-0.1,0.9-0.1,1.4h-2c0-0.5,0.1-1.1,0.1-1.6C50.8,3.6,50.9,2.8,51,2
	H13c0.1,0.8,0.2,1.6,0.3,2.4c0,0.5,0.1,1,0.1,1.6H11.3L11.3,6z M53.2,1.3C53,1.7,52.7,2,52.2,2"/>
<rect x="-295.7" y="-295.7" class="st2" width="655.4" height="655.4"/>
</svg>
