<?xml version="1.0" encoding="utf-8"?>
<!-- Generator: Adobe Illustrator 26.0.1, SVG Export Plug-In . SVG Version: 6.00 Build 0)  -->
<svg version="1.1" id="Layer_1" xmlns="http://www.w3.org/2000/svg" xmlns:xlink="http://www.w3.org/1999/xlink" x="0px" y="0px"
	 viewBox="0 0 16 16" style="enable-background:new 0 0 16 16;" xml:space="preserve">
<style type="text/css">
	.st0{fill-rule:evenodd;clip-rule:evenodd;fill:#264796;}
</style>
<path class="st0" d="M1,1C0.5,1,0.1,1.5,0.1,2s0.5,1,1,1l0,0H15c0.6,0,1-0.4,1-1s-0.4-1-1-1l0,0H1C1.1,1,1.1,1,1,1z M1,7
	C0.5,7,0.1,7.5,0.1,8c0,0.6,0.5,0.9,1,0.9l0,0H15c0.6,0,1-0.4,1-1c0-0.6-0.4-1-1-1l0,0H1C1.1,7,1.1,7,1,7z M1,12.9
	c-0.6,0-1,0.5-1,1.1s0.5,1,1.1,1l0,0H15c0.6,0,1-0.4,1-1s-0.4-1-1-1l0,0L1,12.9C1.1,12.9,1.1,12.9,1,12.9z"/>
</svg>
